<svg xmlns="http://www.w3.org/2000/svg" version="1.1" xmlns:xlink="http://www.w3.org/1999/xlink" xmlns:svgjs="http://svgjs.dev/svgjs" width="1000" height="146" viewBox="0 0 1000 146"><g transform="matrix(1,0,0,1,-0.6060559042839486,0.25692191480749216)"><svg viewBox="0 0 396 58" data-background-color="#3c3c3c" preserveAspectRatio="xMidYMid meet" height="146" width="1000" xmlns="http://www.w3.org/2000/svg" xmlns:xlink="http://www.w3.org/1999/xlink"><g id="tight-bounds" transform="matrix(1,0,0,1,0.2399981380964391,-0.1020648702659912)"><svg viewBox="0 0 395.52 58.20412974053196" height="58.20412974053196" width="395.52"><g><svg viewBox="0 0 399.11659999999995 58.73339999999999" height="58.20412974053196" width="395.52"><g><svg viewBox="0 0 399.11659999999995 58.73339999999999" height="58.73339999999999" width="399.11659999999995"><g id="textblocktransform"><svg viewBox="0 0 399.11659999999995 58.73339999999999" height="58.73339999999999" width="399.11659999999995" id="textblock"><g><svg viewBox="0 0 399.11659999999995 58.73339999999999" height="58.73339999999999" width="399.11659999999995"><g><svg><g></g><g></g></svg></g><g><svg><g></g><g><svg></svg></g></svg></g><g id="text-0"><svg viewBox="0 0 399.11659999999995 58.73339999999999" height="58.73339999999999" width="399.11659999999995"><g transform="matrix(1,0,0,1,0,11.216699999999996)"><svg width="117.05000000000001" viewBox="4.849999904632568 -35.25 117.04000091552734 35.75" height="35.75" data-palette-color="#f5ba41"><path d="M28.55-3.65L30.35-0.5Q29.45 0.5 27.45 0.5L27.45 0.5Q24.85 0.5 23.25-1.6L23.25-1.6 17.45-9.55Q16.5-10.8 15.78-11.55 15.05-12.3 13.83-12.83 12.6-13.35 10.8-13.4L10.8-13.4 10.8-17.25 15.6-17.25Q18.55-17.25 20.25-18.98 21.95-20.7 21.95-23.7L21.95-23.7Q21.95-26.7 20.33-28.6 18.7-30.5 16.15-30.5L16.15-30.5 8.95-30.5 8.95 0.05 4.85 0.05 4.85-34.3 16.35-34.3Q19.05-34.3 21.28-32.9 23.5-31.5 24.78-29.18 26.05-26.85 26.05-24.2L26.05-24.2Q26.05-21 24.35-18.45 22.65-15.9 20.2-15.2L20.2-15.2Q19-14.85 16.2-14.85L16.2-14.85Q17.65-14.45 18.32-14.03 19-13.6 19.8-12.6L19.8-12.6 21.65-10.1Q25.55-4.85 26.05-4.2L26.05-4.2Q26.5-3.65 26.83-3.43 27.15-3.2 27.5-3.2L27.5-3.2Q28.1-3.2 28.55-3.65L28.55-3.65ZM36.55 0.05L36.55-34.3 58.95-34.3 58.95-30.5 40.55-30.5 40.55-20.05 54.1-20.05 54.1-16.25 40.55-16.25 40.55-3.75 59.9-3.75 59.9 0.05 36.55 0.05ZM63.55 0.05L78.2-35.25 79.84-35.25 94.59 0.05 90.25 0.05 85.55-11 72.5-11 67.89 0.05 63.55 0.05ZM83.95-14.7L79.7-25.4 79.3-26.7 79-27.85 78.65-26.75 78.25-25.4 74.05-14.7 83.95-14.7ZM100.94 0.05L100.94-34.3 105.04-34.3 105.04-3.75 121.89-3.75 121.89 0.05 100.94 0.05Z" opacity="1" transform="matrix(1,0,0,1,0,0)" fill="#f5ba41" class="undefined-p-0"></path></svg></g><g><svg xmlns="http://www.w3.org/2000/svg" xmlns:xlink="http://www.w3.org/1999/xlink" version="1.0" x="130.91660000000002" y="0" viewBox="1 1 48 48" enable-background="new 0 0 50 50" xml:space="preserve" height="58.73339999999999" width="58.73339999999999" class="icon-s-0" data-fill-palette-color="accent" id="s-0"><g fill="#fce44d" data-fill-palette-color="accent"><g fill="#fce44d" data-fill-palette-color="accent"><rect x="1" y="1" fill="#fce44d" width="23" height="5" data-fill-palette-color="accent"></rect><rect x="1" y="10" fill="#fce44d" width="23" height="5" data-fill-palette-color="accent"></rect><rect x="1" y="19" fill="#fce44d" width="23" height="5" data-fill-palette-color="accent"></rect></g><g fill="#fce44d" data-fill-palette-color="accent"><rect x="26" y="26" fill="#fce44d" width="23" height="5" data-fill-palette-color="accent"></rect><rect x="26" y="35" fill="#fce44d" width="23" height="5" data-fill-palette-color="accent"></rect><rect x="26" y="44" fill="#fce44d" width="23" height="5" data-fill-palette-color="accent"></rect></g><g fill="#fce44d" data-fill-palette-color="accent"><rect x="19" y="26" fill="#fce44d" width="5" height="23" data-fill-palette-color="accent"></rect><rect x="10" y="26" fill="#fce44d" width="5" height="23" data-fill-palette-color="accent"></rect><rect x="1" y="26" fill="#fce44d" width="5" height="23" data-fill-palette-color="accent"></rect></g><g fill="#fce44d" data-fill-palette-color="accent"><rect x="44" y="1" fill="#fce44d" width="5" height="23" data-fill-palette-color="accent"></rect><rect x="35" y="1" fill="#fce44d" width="5" height="23" data-fill-palette-color="accent"></rect><rect x="26" y="1" fill="#fce44d" width="5" height="23" data-fill-palette-color="accent"></rect></g></g></svg></g><g transform="matrix(1,0,0,1,203.5166,11.216699999999996)"><svg width="195.6" viewBox="4.849999904632568 -35.25 195.58999633789062 36.29999923706055" height="36.3" data-palette-color="#f5ba41"><path d="M4.85 0.05L4.85-34.3 27.25-34.3 27.25-30.5 8.85-30.5 8.85-20.05 22.4-20.05 22.4-16.25 8.85-16.25 8.85-3.75 28.2-3.75 28.2 0.05 4.85 0.05ZM44 1.05Q41 1.05 38.35-0.1 35.7-1.25 33.87-3.3 32.05-5.35 31.5-7.95L31.5-7.95 35.2-9.5Q36-6.35 38.55-4.55 41.1-2.75 44-2.75L44-2.75Q47.1-2.75 49.25-4.67 51.4-6.6 51.4-9.7L51.4-9.7Q51.4-11.85 50.15-13.25 48.9-14.65 45.75-16.15L45.75-16.15Q41.75-18.1 39.67-19.33 37.6-20.55 36.22-22.38 34.85-24.2 34.85-26.75L34.85-26.75Q34.85-29.2 36.17-31.13 37.5-33.05 39.72-34.13 41.95-35.2 44.5-35.2L44.5-35.2Q46.65-35.2 48.52-34.33 50.4-33.45 51.52-32 52.65-30.55 52.65-28.9L52.65-28.9Q52.65-28.65 52.55-28.05L52.55-28.05 48.65-28.3Q48.85-29.1 48.22-29.83 47.6-30.55 46.5-30.98 45.4-31.4 44.4-31.4L44.4-31.4Q42.2-31.4 40.57-30.08 38.95-28.75 38.95-26.9L38.95-26.9Q38.95-25.4 40.02-24.2 41.1-23 42.55-22.13 44-21.25 46.3-20.1L46.3-20.1 48.1-19.2Q52.05-17.05 53.77-14.9 55.5-12.75 55.5-9.65L55.5-9.65Q55.5-6.55 53.92-4.1 52.35-1.65 49.7-0.3 47.05 1.05 44 1.05L44 1.05ZM69.2 0.05L69.2-30.5 57.85-30.5 57.85-34.3 84.65-34.3 84.65-30.5 73.3-30.5 73.3 0.05 69.2 0.05ZM85.29 0.05L99.94-35.25 101.59-35.25 116.34 0.05 111.99 0.05 107.29-11 94.24-11 89.64 0.05 85.29 0.05ZM105.69-14.7L101.44-25.4 101.04-26.7 100.74-27.85 100.39-26.75 99.99-25.4 95.79-14.7 105.69-14.7ZM127.84 0.05L127.84-30.5 116.49-30.5 116.49-34.3 143.29-34.3 143.29-30.5 131.94-30.5 131.94 0.05 127.84 0.05ZM149.79 0.05L149.79-34.3 172.19-34.3 172.19-30.5 153.79-30.5 153.79-20.05 167.34-20.05 167.34-16.25 153.79-16.25 153.79-3.75 173.14-3.75 173.14 0.05 149.79 0.05ZM188.94 1.05Q185.94 1.05 183.29-0.1 180.64-1.25 178.81-3.3 176.99-5.35 176.44-7.95L176.44-7.95 180.14-9.5Q180.94-6.35 183.49-4.55 186.04-2.75 188.94-2.75L188.94-2.75Q192.04-2.75 194.19-4.67 196.34-6.6 196.34-9.7L196.34-9.7Q196.34-11.85 195.09-13.25 193.84-14.65 190.69-16.15L190.69-16.15Q186.69-18.1 184.61-19.33 182.54-20.55 181.16-22.38 179.79-24.2 179.79-26.75L179.79-26.75Q179.79-29.2 181.11-31.13 182.44-33.05 184.66-34.13 186.89-35.2 189.44-35.2L189.44-35.2Q191.59-35.2 193.46-34.33 195.34-33.45 196.46-32 197.59-30.55 197.59-28.9L197.59-28.9Q197.59-28.65 197.49-28.05L197.49-28.05 193.59-28.3Q193.79-29.1 193.16-29.83 192.54-30.55 191.44-30.98 190.34-31.4 189.34-31.4L189.34-31.4Q187.14-31.4 185.51-30.08 183.89-28.75 183.89-26.9L183.89-26.9Q183.89-25.4 184.96-24.2 186.04-23 187.49-22.13 188.94-21.25 191.24-20.1L191.24-20.1 193.04-19.2Q196.99-17.05 198.71-14.9 200.44-12.75 200.44-9.65L200.44-9.65Q200.44-6.55 198.86-4.1 197.29-1.65 194.64-0.3 191.99 1.05 188.94 1.05L188.94 1.05Z" opacity="1" transform="matrix(1,0,0,1,0,0)" fill="#f5ba41" class="undefined-p-1"></path></svg></g></svg></g></svg></g></svg></g></svg></g></svg></g><defs></defs></svg><rect width="395.52" height="58.20412974053196" fill="none" stroke="none" visibility="hidden"></rect></g></svg></g></svg>